PathFileType	4	(X/Y/Z)	OpenSim_Sub03_EMGBaseline_Gyro.trc
DataRate	CameraRate	NumFrames	NumMarkers	Units	OrigDataRate	OrigDataStartFrame	OrigNumFrames
100	100	38	8	m	100	5530	7372
Frame#	Time	torso_imu_offset_imu	pelvis_imu_offset_imu	tibia_r_imu_offset_imu	femur_r_imu_offset_imu	tibia_l_imu_offset_imu	femur_l_imu_offset_imu	toes_r_imu_offset_imu	toes_l_imu_offset_imu
				X1	Y1	Z1	X2	Y2	Z2	X3	Y3	Z3	X4	Y4	Z4	X5	Y5	Z5	X6	Y6	Z6	X7	Y7	Z7	X8		Y8	Z8	

5530	55.29000000	-0.16097608	-0.02012561	0.12860464	0.28876823	0.08604242	0.22113136	0.85395366	0.30448873	1.36487815	0.37097629	-0.19990683	1.12759740	0.40909271	0.04276153	0.70322537	0.48617178	-0.13623327	0.54995443	-0.13719458	2.99819167	2.38045129	0.30344000	-0.66420510	-0.05234545
5531	55.30000000	-0.12827764	-0.04176334	0.12629030	0.29958901	0.11479205	0.20514319	0.83734863	0.31925720	1.65189600	0.54401911	-0.20037384	1.12423200	0.38039332	0.04069630	0.70132022	0.42305354	-0.09561958	0.53683059	-0.14169302	3.09084303	2.39699865	0.28606030	-0.68305302	-0.05120010
5532	55.31000000	-0.10208897	-0.06519379	0.11589815	0.28362937	0.13791007	0.18334495	0.85869977	0.39196116	1.95651880	0.69311134	-0.22065881	1.10481722	0.32930861	0.04652255	0.70730137	0.38595086	-0.05696317	0.50477272	-0.30103018	3.20191490	2.36491735	0.29226197	-0.68817898	-0.04057430
5533	55.32000000	-0.07822665	-0.09072973	0.10245477	0.27556749	0.14461517	0.17730235	0.85685646	0.48873560	2.21977592	0.80509325	-0.26115056	1.04620821	0.29849561	0.05402311	0.71146664	0.37409789	-0.03874662	0.47408026	-0.49430273	3.31869624	2.27795246	0.26392674	-0.69423191	-0.02586309
5534	55.33000000	-0.04638659	-0.11922305	0.09129990	0.28303072	0.14026334	0.18722991	0.75405161	0.55169998	2.41197681	0.90868622	-0.28388893	0.97342944	0.27859289	0.05493464	0.69364468	0.33700759	-0.04131015	0.45583832	-0.59555373	3.37109327	2.12873340	0.23222045	-0.71222071	-0.00749245
5535	55.34000000	-0.02241783	-0.14328008	0.08072620	0.26521130	0.12792935	0.17533578	0.54459300	0.56951001	2.56523480	1.03805126	-0.27669322	0.88015465	0.29396691	0.05201387	0.69410149	0.31139669	-0.04744505	0.44132962	-0.61690398	3.39280784	1.96175016	0.21177883	-0.70162072	0.01049733
5536	55.35000000	0.00021932	-0.16050223	0.07433614	0.25421849	0.12214428	0.17798504	0.22751724	0.60317897	2.70584551	1.18956684	-0.24916046	0.81011896	0.29813257	0.06824830	0.71318407	0.30556562	-0.05714593	0.43660013	-0.64411707	3.46055169	1.83276075	0.19259398	-0.68831617	0.02654208
5537	55.36000000	0.02791043	-0.17688186	0.07647485	0.25110816	0.11604685	0.18523768	-0.14747151	0.61613094	2.84056210	1.28024855	-0.22102719	0.75938349	0.31823506	0.06778117	0.70005013	0.31151387	-0.05930051	0.45082039	-0.76010018	3.57563193	1.75628635	0.17486232	-0.68137575	0.03708555
5538	55.37000000	0.05093470	-0.18805004	0.08113518	0.24716436	0.11488673	0.17325650	-0.40599177	0.58740969	2.97241552	1.26836577	-0.20044257	0.69393117	0.34102391	0.06277373	0.66932784	0.31930226	-0.05453286	0.46721130	-0.88284652	3.67166359	1.69199524	0.15621761	-0.66459141	0.05355333
5539	55.38000000	0.06830861	-0.20031078	0.07706502	0.24680910	0.11364724	0.15452566	-0.46333225	0.58739291	3.11094617	1.18631044	-0.19170342	0.62738443	0.36017059	0.06391550	0.66637832	0.33129550	-0.04054693	0.47511910	-0.93395592	3.68406761	1.62157240	0.15052435	-0.63998177	0.07050174
5540	55.39000000	0.08945506	-0.21311910	0.07213180	0.25396097	0.11691427	0.14916076	-0.39443696	0.57269754	3.26992887	1.06977004	-0.20737197	0.56962590	0.35276432	0.05800543	0.68600784	0.36466652	-0.02341062	0.47857436	-0.93815926	3.67762368	1.58389022	0.14475387	-0.62692629	0.08015061
5541	55.40000000	0.11224696	-0.21317357	0.07121306	0.26848083	0.12866657	0.14979640	-0.19269623	0.53691070	3.40906532	0.90031057	-0.24985293	0.49844194	0.35655664	0.06632520	0.68734105	0.39836257	-0.01470589	0.47520679	-0.90991511	3.70148102	1.63462388	0.12102575	-0.59743769	0.08713577
5542	55.41000000	0.12465965	-0.21079362	0.06768024	0.27499505	0.13846797	0.13239809	0.21446016	0.54996036	3.51099913	0.69297830	-0.27893577	0.41955853	0.35916220	0.06840918	0.66512550	0.41106063	-0.00951503	0.48953879	-0.81995045	3.68449066	1.76997999	0.10922489	-0.57327506	0.11282656
5543	55.42000000	0.14269168	-0.20710759	0.06651689	0.28266590	0.15502660	0.10519441	0.62693856	0.55924230	3.59224138	0.50164148	-0.29050031	0.33661275	0.35864455	0.07258409	0.65446787	0.39349104	-0.01278786	0.49770551	-0.67177928	3.58200699	1.98154204	0.07865627	-0.56042803	0.12778557
5544	55.43000000	0.15582854	-0.20374476	0.05699015	0.28397738	0.16422188	0.06823256	0.93629387	0.59103170	3.64451662	0.32156419	-0.30499308	0.24534808	0.33615982	0.08103261	0.66510877	0.37648186	-0.01091250	0.50078465	-0.51881141	3.40519769	2.27195864	0.07833184	-0.53866073	0.13801053
5545	55.44000000	0.17325382	-0.20241601	0.05047210	0.29875575	0.17369189	0.05266264	1.12400581	0.65835125	3.67004642	0.14795521	-0.31399314	0.15750017	0.32929316	0.09046798	0.67099330	0.36285583	-0.00549311	0.50584637	-0.38552179	3.19965225	2.61443842	0.07337798	-0.52477458	0.14788505
5546	55.45000000	0.18595065	-0.19486966	0.04782792	0.31973595	0.18570228	0.04581673	1.18020618	0.71468586	3.66740872	-0.00242100	-0.31549287	0.07304776	0.31336252	0.04990292	0.65742144	0.32142378	0.00210106	0.50818325	-0.31710755	3.00192979	2.98286058	0.04249686	-0.53748517	0.17062219
5547	55.46000000	0.19603081	-0.18548111	0.04741163	0.32496581	0.20415923	0.01248938	1.19352969	0.77200013	3.63786925	-0.11358916	-0.30384584	-0.01188879	0.28346406	0.02088387	0.63379107	0.27462434	0.00696999	0.52260545	-0.32217705	2.84357007	3.33316992	0.01485604	-0.54953107	0.19997603
5548	55.47000000	0.20324498	-0.16911945	0.04338874	0.33700347	0.21224245	-0.01455817	1.18436376	0.83750302	3.60331047	-0.18077820	-0.29371823	-0.08920657	0.24170884	0.02669929	0.65441434	0.24295680	0.01867049	0.55513082	-0.30559601	2.71733533	3.58867023	-0.00702057	-0.56521957	0.21565442
5549	55.48000000	0.20888487	-0.15143024	0.04733725	0.35191554	0.21179538	-0.04560046	1.16194438	0.88658528	3.56707407	-0.18262014	-0.29012562	-0.15510429	0.23332557	0.05437288	0.67685117	0.25130344	0.03031648	0.56892702	-0.19860935	2.63013547	3.69259755	-0.00592925	-0.57486527	0.21774396
5550	55.49000000	0.22568961	-0.13944735	0.04552514	0.35866010	0.21513118	-0.08256031	1.19302483	0.91489835	3.52334604	-0.12192270	-0.29539980	-0.21857686	0.25740877	0.09303968	0.65921528	0.26247082	0.03415275	0.57695235	-0.03452193	2.57826366	3.64923854	0.01248445	-0.58112918	0.20243755
5551	55.50000000	0.24164951	-0.11416463	0.03842635	0.37201176	0.21343036	-0.08694592	1.27210987	0.94552896	3.47087028	-0.02802683	-0.33009878	-0.27953134	0.24594107	0.08500493	0.66752350	0.26112765	0.04178192	0.59706050	0.09036396	2.52367076	3.51219646	0.01377649	-0.59028915	0.19440380
5552	55.51000000	0.23901795	-0.08585573	0.03983153	0.38403996	0.21158973	-0.07281677	1.28970442	1.00154207	3.38842085	0.08297132	-0.39746908	-0.34164328	0.23746124	0.07436743	0.68524226	0.25608114	0.05490172	0.60415269	0.12834342	2.43283933	3.32271246	0.02866022	-0.60904441	0.18383812
5553	55.52000000	0.23621380	-0.06754672	0.02752564	0.38595407	0.20200276	-0.06504677	1.22684057	1.04004049	3.28048173	0.17900706	-0.45394447	-0.39539779	0.21954071	0.08185526	0.72046403	0.26739188	0.07330496	0.59882132	0.10374544	2.30948404	3.11941299	0.03942438	-0.63066945	0.17541190
5554	55.53000000	0.24748704	-0.06527883	0.02516602	0.40118158	0.18217825	-0.05094830	1.09082368	1.04580265	3.15675223	0.26769934	-0.47319977	-0.44072415	0.21155220	0.09450548	0.74082789	0.28769065	0.09186689	0.59300145	0.08726895	2.23475896	2.91354177	0.04310231	-0.64818962	0.17455963
5555	55.54000000	0.24958307	-0.05725358	0.03085436	0.42458728	0.15600719	-0.03382711	0.95479250	1.03905353	3.00421214	0.41094663	-0.49076245	-0.47045753	0.21323594	0.11066465	0.74851291	0.28083223	0.10663686	0.58535823	0.11603195	2.22551881	2.70475736	0.03661812	-0.69382836	0.18425401
5556	55.55000000	0.24461749	-0.04437216	0.03450741	0.45878237	0.13429446	-0.03031359	0.82013985	0.97610968	2.84485867	0.60036203	-0.52336325	-0.48017419	0.21248740	0.13930889	0.76419968	0.27492690	0.12258292	0.57236066	0.11129899	2.20718021	2.47805304	0.03515961	-0.73777713	0.19731128
5557	55.56000000	0.25756814	-0.03227717	0.03082876	0.48915120	0.11303222	-0.02312132	0.66090804	0.85680085	2.67877980	0.79829217	-0.53020729	-0.46847055	0.19262040	0.13721867	0.81188506	0.30177458	0.14361375	0.54837609	0.02028279	2.13525989	2.23241192	0.04475504	-0.78387196	0.21104226
5558	55.57000000	0.26074922	-0.01091608	0.02491665	0.50094570	0.09250494	0.01046392	0.57396668	0.75068486	2.47476975	1.03441872	-0.48519526	-0.43627302	0.20589407	0.15701178	0.83950994	0.34029251	0.15925539	0.52003510	-0.12012247	1.98860064	1.99767100	0.03060787	-0.82963967	0.22459741
5559	55.58000000	0.26875103	0.00922508	0.01075362	0.48927977	0.07231420	0.01722784	0.53237761	0.65274467	2.24763109	1.22636356	-0.45925555	-0.38164544	0.23500158	0.17133304	0.86167741	0.35969339	0.17494768	0.50816796	-0.25180944	1.77463775	1.78783569	0.03389571	-0.88568111	0.24543381
5560	55.59000000	0.27598562	0.02499071	0.00424662	0.47296141	0.05510057	0.02864864	0.46218642	0.53912871	1.98593783	1.23902195	-0.50201796	-0.31739701	0.25640142	0.19340003	0.89826752	0.36524610	0.19018032	0.49947734	-0.34679052	1.53150232	1.62014378	0.04312844	-0.95535768	0.24787492
5561	55.60000000	0.26164796	0.04264118	0.01102451	0.45166854	0.03243539	0.02397961	0.35553132	0.41602083	1.64433929	1.15825803	-0.53721110	-0.25389803	0.26944838	0.20605443	0.94716708	0.38068129	0.21135035	0.48474822	-0.37100228	1.26265754	1.45668169	0.05959204	-1.02104256	0.24932165
5562	55.61000000	0.24955665	0.06255817	0.01594823	0.43001371	0.00954620	0.02251723	0.24205868	0.26158512	1.22364522	1.09833127	-0.55853109	-0.17210447	0.28703251	0.23824127	1.00204687	0.38825870	0.23149270	0.46081719	-0.31418737	0.94600634	1.23998887	0.08655784	-1.07935065	0.24680885
5563	55.62000000	0.24848247	0.08216582	0.01949471	0.40967187	-0.00785447	0.03660020	0.19358424	0.06531810	0.76409945	1.02201534	-0.55120532	-0.06121393	0.27397134	0.25422661	1.03758660	0.35892013	0.24999901	0.43413214	-0.23338982	0.53512676	0.94770973	0.08845296	-1.15172321	0.24267291
5564	55.63000000	0.25874308	0.10122614	0.01981237	0.37061213	-0.03486158	0.02707479	0.27450638	-0.10807758	0.28481633	0.90149423	-0.48502385	0.09113706	0.25473338	0.25687933	1.06800309	0.30598746	0.26670463	0.41579745	-0.16938265	0.07179538	0.61097074	0.09595254	-1.23766986	0.23372727
5565	55.64000000	0.24084933	0.13411095	0.02943291	0.36241321	-0.06826015	0.04616860	0.42545197	-0.27912030	-0.16061575	0.74912064	-0.41674724	0.28457897	0.26207489	0.26740964	1.12853800	0.26395138	0.28177883	0.38385928	-0.00748151	-0.47969824	0.21656683	0.13731022	-1.34396171	0.21110164
5566	55.65000000	0.24065406	0.16437140	0.01762228	0.37671418	-0.10873800	0.05777849	0.53833968	-0.45939616	-0.52616927	0.54570670	-0.40083862	0.42134534	0.30486654	0.29262914	1.22055068	0.23315373	0.30684364	0.34897798	0.29242460	-1.01629334	-0.15900973	0.17885702	-1.46027096	0.18652123
5567	55.66000000	0.25223670	0.19799145	0.01054232	0.40833575	-0.14506561	0.06811804	0.67355731	-0.58611044	-0.83632026	0.33101250	-0.45143536	0.43803743	0.34877687	0.30925902	1.30093149	0.21157890	0.34312949	0.32573902	0.65418746	-1.61422193	-0.50555239	0.19057805	-1.57733533	0.16733418
